<?xml version="1.0" standalone="no"?><!DOCTYPE svg PUBLIC "-//W3C//DTD SVG 1.1//EN" "http://www.w3.org/Graphics/SVG/1.1/DTD/svg11.dtd"><svg t="1531475500636" class="icon" style="" viewBox="0 0 1024 1024" version="1.1" xmlns="http://www.w3.org/2000/svg" p-id="36395" xmlns:xlink="http://www.w3.org/1999/xlink" width="16" height="16"><defs><style type="text/css"></style></defs><path d="M512 499.2m-373.333333 0a373.333333 373.333333 0 1 0 746.666666 0 373.333333 373.333333 0 1 0-746.666666 0Z" fill="#4b99fc" p-id="36396" data-spm-anchor-id="a313x.7781069.0.i14" class="selected"></path><path d="M512 891.733333c-215.466667 0-392.533333-177.066667-392.533333-392.533333S296.533333 106.666667 512 106.666667s392.533333 177.066667 392.533333 392.533333S727.466667 891.733333 512 891.733333z m0-744.533333c-194.133333 0-352 157.866667-352 352S317.866667 851.2 512 851.2s352-157.866667 352-352S706.133333 147.2 512 147.2z" fill="#ffffff" p-id="36397"></path><path d="M887.466667 499.2c0 206.933333-166.4 373.333333-373.333334 373.333333S138.666667 706.133333 138.666667 499.2c76.8 38.4 138.666667 2.133333 138.666666 2.133333s168.533333-78.933333 290.133334 0c121.6 78.933333 245.333333 0 245.333333 0s57.6-38.4 72.533333-49.066666c2.133333 14.933333 2.133333 29.866667 2.133334 46.933333z" fill="#4b99fc" p-id="36398" data-spm-anchor-id="a313x.7781069.0.i13" class="selected"></path><path d="M896 469.333333l-21.333333-34.133333 27.733333 29.866667c-2.133333 0-6.4 2.133333-6.4 4.266666zM418.133333 689.066667l-189.866666-189.866667 189.866666-192 29.866667 29.866667-162.133333 162.133333L448 661.333333z" fill="#ffffff" p-id="36399"></path><path d="M686.933333 558.933333c-40.533333 0-83.2-10.666667-128-38.4-110.933333-72.533333-268.8 0-270.933333 2.133334l-17.066667-36.266667c6.4-4.266667 179.2-83.2 309.333334 2.133333 108.8 70.4 219.733333 2.133333 224 0l21.333333 34.133334c-4.266667 0-61.866667 36.266667-138.666667 36.266666z" fill="#ffffff" p-id="36400"></path><path d="M512 891.733333c-215.466667 0-392.533333-177.066667-392.533333-392.533333S296.533333 106.666667 512 106.666667s392.533333 177.066667 392.533333 392.533333S727.466667 891.733333 512 891.733333z m0-744.533333c-194.133333 0-352 157.866667-352 352S317.866667 851.2 512 851.2s352-157.866667 352-352S706.133333 147.2 512 147.2z" fill="#ffffff" p-id="36401"></path></svg>